<?xml version="1.0" encoding="utf-8"?><!-- Uploaded to: SVG Repo, www.svgrepo.com, Generator: SVG Repo Mixer Tools -->
<svg fill="#000000" width="800px" height="800px" viewBox="0 0 24 24" id="chat-alert-4" data-name="Flat Line" xmlns="http://www.w3.org/2000/svg" class="icon flat-line"><path id="secondary" d="M3.12,13.48a9,9,0,0,0,10.36,7.4A9.12,9.12,0,0,0,16.12,20h0l3.39.7a1,1,0,0,0,1.18-.78.9.9,0,0,0,0-.4L20,16.12A9,9,0,1,0,3.12,13.48Z" style="fill: rgb(44, 169, 188); stroke-width: 2;"></path><path id="primary" d="M12,11V8M3.12,13.48a9,9,0,0,0,10.36,7.4A9.12,9.12,0,0,0,16.12,20h0l3.39.7a1,1,0,0,0,1.18-.78.9.9,0,0,0,0-.4L20,16.12A9,9,0,1,0,3.12,13.48Z" style="fill: none; stroke: rgb(0, 0, 0); stroke-linecap: round; stroke-linejoin: round; stroke-width: 2;"></path><line id="primary-upstroke" x1="12.05" y1="15.5" x2="11.95" y2="15.5" style="fill: none; stroke: rgb(0, 0, 0); stroke-linecap: round; stroke-linejoin: round; stroke-width: 2.5;"></line></svg>